<svg width="49" height="49" viewBox="0 0 49 49" fill="none" xmlns="http://www.w3.org/2000/svg">
<g opacity="0.2">
<rect x="0.211548" width="47.7344" height="48" rx="16" stroke="#1565D8"/>
</g>
<path opacity="0.3" fill-rule="evenodd" clip-rule="evenodd" d="M23.6333 29.04C22.3415 29.04 21.2943 30.0931 21.2943 31.392V34.976C21.2943 35.409 21.6434 35.76 22.074 35.76H26.0837C26.5143 35.76 26.8633 35.409 26.8633 34.976V31.392C26.8633 30.0931 25.8161 29.04 24.5243 29.04H23.6333Z" fill="#1565D8"/>
<path fill-rule="evenodd" clip-rule="evenodd" d="M27.9772 35.0682V31.3788C27.9772 29.4686 26.2406 27.92 24.3409 27.92H23.8168C21.9171 27.92 20.1805 29.4686 20.1805 31.3788V35.0682C20.1805 35.3108 20.2219 35.5436 20.298 35.76H18.5754C16.6757 35.76 15.1357 34.2114 15.1357 32.3012V21.7198L13.5249 23.1371C13.2389 23.3887 12.8043 23.3595 12.5541 23.072C12.3039 22.7845 12.3329 22.3474 12.6188 22.0959L23.6258 12.4111C23.8852 12.1829 24.2725 12.1829 24.5319 12.4111L35.5389 22.0959C35.8248 22.3474 35.8538 22.7845 35.6036 23.072C35.3534 23.3595 34.9188 23.3887 34.6328 23.1371L33.022 21.7198V32.3012C33.022 34.2114 31.482 35.76 29.5823 35.76H27.8597C27.9358 35.5436 27.9772 35.3108 27.9772 35.0682Z" fill="#1565D8"/>
</svg>
