<svg width="48" height="48" viewBox="0 0 48 48" fill="none" xmlns="http://www.w3.org/2000/svg">
<g opacity="0.2">
<rect x="0.711548" y="0.5" width="46.7344" height="47" rx="15.5" stroke="#15A9D8"/>
</g>
<path fill-rule="evenodd" clip-rule="evenodd" d="M15.6967 14.0831H27.5356C28.3529 14.0831 29.0154 14.7494 29.0154 15.5712V27.476C29.0154 28.2978 28.3529 28.9641 27.5356 28.9641H15.6967C14.8794 28.9641 14.2168 28.2978 14.2168 27.476V15.5712C14.2168 14.7494 14.8794 14.0831 15.6967 14.0831ZM32.9617 20.0357H33.455C34.2723 20.0357 34.9349 20.7019 34.9349 21.5238V33.4286C34.9349 34.2504 34.2723 34.9167 33.455 34.9167H21.6161C20.7988 34.9167 20.1362 34.2504 20.1362 33.4286V32.9325H30.4953C31.8575 32.9325 32.9617 31.8221 32.9617 30.4524V20.0357Z" fill="#15A9D8"/>
<path d="M30.0021 17.0596H30.4954C31.3127 17.0596 31.9753 17.7258 31.9753 18.5477V30.4524C31.9753 31.2743 31.3127 31.9405 30.4954 31.9405H18.6565C17.8392 31.9405 17.1766 31.2743 17.1766 30.4524V29.9564H27.5357C28.8978 29.9564 30.0021 28.846 30.0021 27.4762V17.0596Z" fill="#15A9D8" fill-opacity="0.3"/>
</svg>
