<svg width="49" height="48" viewBox="0 0 49 48" fill="none" xmlns="http://www.w3.org/2000/svg">
<g opacity="0.2">
<rect x="1.00073" y="0.5" width="46.7344" height="47" rx="15.5" stroke="#7FAA03"/>
</g>
<path fill-rule="evenodd" clip-rule="evenodd" d="M18.6219 22.1199C20.0681 20.0601 20.9708 17.6964 21.3329 15.0206C21.3674 14.7657 21.5474 14.5537 21.7945 14.4771C24.2849 13.7046 25.7008 14.9321 25.6774 17.7312C25.6729 18.2746 25.6479 18.7575 25.5946 19.4961C25.4757 21.146 25.4851 21.5962 25.6694 21.8992C25.8466 22.1904 26.4217 22.2898 27.7818 22.031C28.211 21.9493 28.6416 21.8567 29.1185 21.7455C29.329 21.6965 30.8453 21.3256 31.2328 21.2417C31.9722 21.0817 32.5027 21.014 32.9692 21.0427C34.2329 21.1204 34.9035 21.9359 35.0194 23.4984C35.2234 26.25 34.5929 31.777 33.9638 33.8128C33.321 35.8931 32.2 36.6784 29.5091 36.7258C27.779 36.7563 25.1181 36.7563 21.514 36.7257C20.5939 36.7043 19.7601 36.5257 19.0185 36.1919C19.2267 35.7598 19.3433 35.2758 19.3433 34.7648V24.1766C19.3433 23.3993 19.0735 22.6846 18.6219 22.1199Z" fill="#7FAA03"/>
<path d="M14.6811 22.1913C13.5776 22.1913 12.683 23.0801 12.683 24.1766V34.7648C12.683 35.8613 13.5776 36.7501 14.6811 36.7501H16.0131C17.1166 36.7501 18.0112 35.8613 18.0112 34.7648V24.1766C18.0112 23.0801 17.1166 22.1913 16.0131 22.1913H14.6811Z" fill="#7FAA03" fill-opacity="0.3"/>
</svg>
