<svg width="49" height="49" viewBox="0 0 49 49" fill="none" xmlns="http://www.w3.org/2000/svg">
<g opacity="0.2">
<rect x="0.500732" width="47.7344" height="48" rx="16" stroke="#E6974F"/>
</g>
<path fill-rule="evenodd" clip-rule="evenodd" d="M22.1404 23.44C19.3723 23.44 17.1283 21.1835 17.1283 18.4C17.1283 15.6165 19.3723 13.36 22.1404 13.36C24.9085 13.36 27.1525 15.6165 27.1525 18.4C27.1525 21.1835 24.9085 23.44 22.1404 23.44ZM22.1404 24.56C26.7539 24.56 30.4939 28.3208 30.4939 32.96V35.2C30.4939 35.5093 30.2446 35.76 29.937 35.76H14.3438C14.0362 35.76 13.7869 35.5093 13.7869 35.2V32.96C13.7869 28.3208 17.5269 24.56 22.1404 24.56Z" fill="#E6974F"/>
<path opacity="0.3" fill-rule="evenodd" clip-rule="evenodd" d="M34.0023 20.416C34.2791 20.0449 34.8027 19.9697 35.1718 20.248C35.5409 20.5264 35.6157 21.0529 35.3389 21.424L31.9975 25.904C31.6925 26.313 31.098 26.3554 30.7385 25.994L28.5109 23.754C28.1847 23.4259 28.1847 22.8941 28.5109 22.566C28.8371 22.238 29.366 22.238 29.6923 22.566L31.2388 24.1212L34.0023 20.416Z" fill="#E6974F"/>
</svg>
