<svg width="195" height="35" viewBox="0 0 195 35" fill="none" xmlns="http://www.w3.org/2000/svg">
<path fill-rule="evenodd" clip-rule="evenodd" d="M17.1462 19.4164V30.7725C17.1462 32.6286 18.6509 34.1333 20.507 34.1333H30.8886C32.7447 34.1333 34.2494 32.6286 34.2494 30.7725V15.5333C34.2494 14.2116 33.666 12.9574 32.6551 12.1059L19.2203 0.790297C18.01 -0.229123 16.2525 -0.26613 15.0003 0.701439L1.47107 11.1557C0.00234042 12.2906 -0.268274 14.4013 0.866637 15.87C1.50305 16.6936 2.48516 17.1759 3.52601 17.1759H14.9057C16.1431 17.1759 17.1462 18.179 17.1462 19.4164Z" fill="#019B64"/>
<path fill-rule="evenodd" clip-rule="evenodd" d="M0 18.5643V31.893C0 33.1304 1.00312 34.1335 2.24054 34.1335H15.6131C15.8606 34.1335 16.0612 33.9329 16.0612 33.6854C16.0612 33.5663 16.0139 33.4521 15.9295 33.3681L0.764508 18.247C0.589257 18.0723 0.305531 18.0727 0.130788 18.2479C0.0470329 18.3319 0 18.4457 0 18.5643Z" fill="#019B64" fill-opacity="0.3"/>
<path d="M49.8738 11.8401H62.8938V15.0041H53.2338V19.9881H61.2138V23.1241H53.2338V28.8361H62.8938V32.0001H49.8738V11.8401Z" fill="#12161A"/>
<path d="M72.1047 32.4201C70.2381 32.4201 68.7167 32.0001 67.5407 31.1601C66.3834 30.3201 65.6741 29.1348 65.4127 27.6041L68.8567 27.0721C69.0247 27.8374 69.4167 28.4348 70.0327 28.8641C70.6487 29.2748 71.4141 29.4801 72.3287 29.4801C73.1314 29.4801 73.7567 29.3214 74.2047 29.0041C74.6527 28.6868 74.8767 28.2481 74.8767 27.6881C74.8767 27.3148 74.7927 27.0348 74.6247 26.8481C74.4567 26.6428 74.1114 26.4468 73.5887 26.2601C73.0847 26.0734 72.2354 25.8214 71.0407 25.5041C69.7527 25.1681 68.7354 24.8041 67.9887 24.4121C67.2607 24.0201 66.7287 23.5628 66.3927 23.0401C66.0754 22.5174 65.9167 21.8734 65.9167 21.1081C65.9167 19.6894 66.4487 18.5601 67.5127 17.7201C68.5954 16.8801 70.0421 16.4601 71.8527 16.4601C73.6074 16.4601 75.0541 16.8614 76.1927 17.6641C77.3501 18.4668 78.0221 19.5494 78.2087 20.9121L74.7647 21.5281C74.6714 20.8934 74.3727 20.3894 73.8687 20.0161C73.3834 19.6428 72.7301 19.4281 71.9087 19.3721C71.1247 19.3348 70.4901 19.4654 70.0047 19.7641C69.5194 20.0441 69.2767 20.4361 69.2767 20.9401C69.2767 21.2574 69.3701 21.5188 69.5567 21.7241C69.7621 21.9108 70.1447 22.0974 70.7047 22.2841C71.2647 22.4708 72.1607 22.7228 73.3927 23.0401C75.2034 23.5068 76.4727 24.0761 77.2007 24.7481C77.9474 25.4201 78.3207 26.3441 78.3207 27.5201C78.3207 29.0508 77.7701 30.2548 76.6687 31.1321C75.5674 31.9908 74.0461 32.4201 72.1047 32.4201Z" fill="#12161A"/>
<path d="M85.8525 25.6441C85.8525 25.7934 85.8525 26.0921 85.8525 26.5401C85.8525 26.9881 85.8712 27.3614 85.9085 27.6601C85.9645 27.9401 86.0485 28.1734 86.1605 28.3601C86.5712 29.0134 87.3552 29.3401 88.5125 29.3401C88.8485 29.3401 89.4459 29.2841 90.3045 29.1721V32.0001C89.3339 32.1868 88.4752 32.2801 87.7285 32.2801C86.6459 32.2801 85.6939 32.1121 84.8725 31.7761C84.0699 31.4214 83.4725 30.8801 83.0805 30.1521C82.8379 29.6854 82.6792 29.2188 82.6045 28.7521C82.5299 28.2668 82.4925 27.6881 82.4925 27.0161V25.8121V19.5121H79.7485V16.8801H82.4925V12.6801H85.8525V16.8801H90.3045V19.5121H85.8525V25.6441Z" fill="#12161A"/>
<path d="M105.47 19.2601C105.712 19.7454 105.862 20.2494 105.918 20.7721C105.992 21.2761 106.03 21.9294 106.03 22.7321V32.0001H103.09V29.9561C102.436 30.7961 101.68 31.4214 100.822 31.8321C99.9818 32.2241 98.9645 32.4201 97.7698 32.4201C96.7058 32.4201 95.7911 32.2148 95.0258 31.8041C94.2605 31.3934 93.6818 30.8428 93.2898 30.1521C92.8978 29.4614 92.7018 28.6961 92.7018 27.8561C92.7018 26.7548 92.9818 25.8308 93.5418 25.0841C94.1018 24.3188 94.9698 23.7308 96.1458 23.3201C96.8738 23.0961 97.7418 22.9001 98.7498 22.7321C99.7578 22.5454 101.083 22.3401 102.726 22.1161C102.67 21.2201 102.39 20.5668 101.886 20.1561C101.4 19.7454 100.644 19.5401 99.6178 19.5401C98.8711 19.5401 98.1898 19.7174 97.5738 20.0721C96.9765 20.4081 96.5658 20.9401 96.3418 21.6681L93.2338 20.6881C93.6258 19.3628 94.3538 18.3268 95.4178 17.5801C96.5005 16.8334 97.9098 16.4601 99.6458 16.4601C102.576 16.4601 104.518 17.3934 105.47 19.2601ZM102.334 27.2121C102.539 26.7268 102.66 25.9428 102.698 24.8601C101.615 25.0281 100.654 25.1961 99.8138 25.3641C98.9925 25.5134 98.3391 25.6628 97.8538 25.8121C97.2378 26.0548 96.7711 26.3348 96.4538 26.6521C96.1551 26.9508 96.0058 27.3334 96.0058 27.8001C96.0058 28.3788 96.2111 28.8454 96.6218 29.2001C97.0511 29.5548 97.6578 29.7321 98.4418 29.7321C99.4871 29.7321 100.346 29.4708 101.018 28.9481C101.708 28.4254 102.147 27.8468 102.334 27.2121Z" fill="#12161A"/>
<path d="M114.099 25.6441C114.099 25.7934 114.099 26.0921 114.099 26.5401C114.099 26.9881 114.117 27.3614 114.155 27.6601C114.211 27.9401 114.295 28.1734 114.407 28.3601C114.817 29.0134 115.601 29.3401 116.759 29.3401C117.095 29.3401 117.692 29.2841 118.551 29.1721V32.0001C117.58 32.1868 116.721 32.2801 115.975 32.2801C114.892 32.2801 113.94 32.1121 113.119 31.7761C112.316 31.4214 111.719 30.8801 111.327 30.1521C111.084 29.6854 110.925 29.2188 110.851 28.7521C110.776 28.2668 110.739 27.6881 110.739 27.0161V25.8121V19.5121H107.995V16.8801H110.739V12.6801H114.099V16.8801H118.551V19.5121H114.099V25.6441Z" fill="#12161A"/>
<path d="M123.795 25.3921C123.926 26.6428 124.318 27.6041 124.971 28.2761C125.643 28.9294 126.548 29.2561 127.687 29.2561C128.508 29.2561 129.218 29.0788 129.815 28.7241C130.431 28.3508 130.898 27.8094 131.215 27.1001L134.547 28.1081C133.987 29.4708 133.1 30.5348 131.887 31.3001C130.692 32.0468 129.348 32.4201 127.855 32.4201C126.362 32.4201 125.027 32.0934 123.851 31.4401C122.675 30.7681 121.76 29.8441 121.107 28.6681C120.472 27.4734 120.155 26.1201 120.155 24.6081C120.155 22.9841 120.472 21.5561 121.107 20.3241C121.742 19.0921 122.628 18.1401 123.767 17.4681C124.906 16.7961 126.212 16.4601 127.687 16.4601C129.124 16.4601 130.375 16.7868 131.439 17.4401C132.503 18.0748 133.315 18.9894 133.875 20.1841C134.454 21.3788 134.743 22.7788 134.743 24.3841C134.743 24.8321 134.734 25.1681 134.715 25.3921H123.795ZM127.827 19.4001C125.587 19.4001 124.271 20.5388 123.879 22.8161H131.299C131.15 21.6401 130.795 20.7814 130.235 20.2401C129.675 19.6801 128.872 19.4001 127.827 19.4001Z" fill="#12161A"/>
<path d="M135.171 11.8401H138.643L143.963 28.7241L149.367 11.8401H152.839L146.483 32.0001H141.527L135.171 11.8401Z" fill="#12161A"/>
<path d="M156.061 25.3921C156.191 26.6428 156.583 27.6041 157.237 28.2761C157.909 28.9294 158.814 29.2561 159.953 29.2561C160.774 29.2561 161.483 29.0788 162.081 28.7241C162.697 28.3508 163.163 27.8094 163.481 27.1001L166.813 28.1081C166.253 29.4708 165.366 30.5348 164.153 31.3001C162.958 32.0468 161.614 32.4201 160.121 32.4201C158.627 32.4201 157.293 32.0934 156.117 31.4401C154.941 30.7681 154.026 29.8441 153.373 28.6681C152.738 27.4734 152.421 26.1201 152.421 24.6081C152.421 22.9841 152.738 21.5561 153.373 20.3241C154.007 19.0921 154.894 18.1401 156.033 17.4681C157.171 16.7961 158.478 16.4601 159.953 16.4601C161.39 16.4601 162.641 16.7868 163.705 17.4401C164.769 18.0748 165.581 18.9894 166.141 20.1841C166.719 21.3788 167.009 22.7788 167.009 24.3841C167.009 24.8321 166.999 25.1681 166.981 25.3921H156.061ZM160.093 19.4001C157.853 19.4001 156.537 20.5388 156.145 22.8161H163.565C163.415 21.6401 163.061 20.7814 162.501 20.2401C161.941 19.6801 161.138 19.4001 160.093 19.4001Z" fill="#12161A"/>
<path d="M175.956 32.4201C174.09 32.4201 172.568 32.0001 171.392 31.1601C170.235 30.3201 169.526 29.1348 169.264 27.6041L172.708 27.0721C172.876 27.8374 173.268 28.4348 173.884 28.8641C174.5 29.2748 175.266 29.4801 176.18 29.4801C176.983 29.4801 177.608 29.3214 178.056 29.0041C178.504 28.6868 178.728 28.2481 178.728 27.6881C178.728 27.3148 178.644 27.0348 178.476 26.8481C178.308 26.6428 177.963 26.4468 177.44 26.2601C176.936 26.0734 176.087 25.8214 174.892 25.5041C173.604 25.1681 172.587 24.8041 171.84 24.4121C171.112 24.0201 170.58 23.5628 170.244 23.0401C169.927 22.5174 169.768 21.8734 169.768 21.1081C169.768 19.6894 170.3 18.5601 171.364 17.7201C172.447 16.8801 173.894 16.4601 175.704 16.4601C177.459 16.4601 178.906 16.8614 180.044 17.6641C181.202 18.4668 181.874 19.5494 182.06 20.9121L178.616 21.5281C178.523 20.8934 178.224 20.3894 177.72 20.0161C177.235 19.6428 176.582 19.4281 175.76 19.3721C174.976 19.3348 174.342 19.4654 173.856 19.7641C173.371 20.0441 173.128 20.4361 173.128 20.9401C173.128 21.2574 173.222 21.5188 173.408 21.7241C173.614 21.9108 173.996 22.0974 174.556 22.2841C175.116 22.4708 176.012 22.7228 177.244 23.0401C179.055 23.5068 180.324 24.0761 181.052 24.7481C181.799 25.4201 182.172 26.3441 182.172 27.5201C182.172 29.0508 181.622 30.2548 180.52 31.1321C179.419 31.9908 177.898 32.4201 175.956 32.4201Z" fill="#12161A"/>
<path d="M189.704 25.6441C189.704 25.7934 189.704 26.0921 189.704 26.5401C189.704 26.9881 189.723 27.3614 189.76 27.6601C189.816 27.9401 189.9 28.1734 190.012 28.3601C190.423 29.0134 191.207 29.3401 192.364 29.3401C192.7 29.3401 193.297 29.2841 194.156 29.1721V32.0001C193.185 32.1868 192.327 32.2801 191.58 32.2801C190.497 32.2801 189.545 32.1121 188.724 31.7761C187.921 31.4214 187.324 30.8801 186.932 30.1521C186.689 29.6854 186.531 29.2188 186.456 28.7521C186.381 28.2668 186.344 27.6881 186.344 27.0161V25.8121V19.5121H183.6V16.8801H186.344V12.6801H189.704V16.8801H194.156V19.5121H189.704V25.6441Z" fill="#12161A"/>
</svg>
