<svg width="15" height="16" viewBox="0 0 15 16" fill="none" xmlns="http://www.w3.org/2000/svg">
<path fill-rule="evenodd" clip-rule="evenodd" d="M7.49997 0.557617C3.36456 0.557617 0 3.92599 0 8.06802C0 12.2092 3.36456 15.578 7.49997 15.578C11.6354 15.578 15 12.2092 15 8.06802C15 3.92599 11.6354 0.557617 7.49997 0.557617ZM11.6812 5.56333L7.06584 10.7629C6.9522 10.8905 6.79384 10.9563 6.63428 10.9563C6.50768 10.9563 6.38048 10.9147 6.27405 10.8303L3.38937 8.51905C3.14071 8.31998 3.10038 7.95617 3.29941 7.70663C3.4982 7.45791 3.8616 7.41712 4.11026 7.61659L6.56708 9.58464L10.8187 4.79533C11.0299 4.5563 11.3951 4.53489 11.6331 4.74729C11.8713 4.95928 11.893 5.3243 11.6812 5.56333Z" fill="#019B64"/>
</svg>
